PathFileType  4	(X/Y/Z) C:\Users\antoi\Documents\MyRepositories\mobilecap\ResultsAnalysis
DataRate	CameraRate	NumFrames	NumMarkers	Units	OrigDataRate	OrigDataStartFrame	OrigNumFrames
100.0	100.0	5	51	mm	100.0	1	240
Frame#	Time	r_knee			r_shank_antsup			r_ankle			r_calc			r_5meta			r_toe			L_knee			L_shank_antsup			L_ankle			L_calc			L_5meta			L_toe			r_sh2			r_sh3			r_sh4			L_sh2			L_sh3			r_thigh1			r_thigh2			r_thigh3			r_thigh4			r_thigh5			L_thigh1			L_thigh2			L_thigh3			L_thigh4			r.ASIS			r.PSIS			L.ASIS			L.PSIS			C7			R_Shoulder			L_Shoulder			R_Sternum			L_Sternum			R_humerus			R_elbow_med			R_elbow_lat			R_forearm			R_wrist_radius			R_wrist_ulna			L_humerus			L_elbow_med			L_elbow_lat			L_forearm			L_wrist_radius			L_wrist_ulna			R_HJC			L_HJC			R_HJC_reg			L_HJC_reg			
		X1	Y1	Z1	X2	Y2	Z2	X3	Y3	Z3	X4	Y4	Z4	X5	Y5	Z5	X6	Y6	Z6	X7	Y7	Z7	X8	Y8	Z8	X9	Y9	Z9	X10	Y10	Z10	X11	Y11	Z11	X12	Y12	Z12	X13	Y13	Z13	X14	Y14	Z14	X15	Y15	Z15	X16	Y16	Z16	X17	Y17	Z17	X18	Y18	Z18	X19	Y19	Z19	X20	Y20	Z20	X21	Y21	Z21	X22	Y22	Z22	X23	Y23	Z23	X24	Y24	Z24	X25	Y25	Z25	X26	Y26	Z26	X27	Y27	Z27	X28	Y28	Z28	X29	Y29	Z29	X30	Y30	Z30	X31	Y31	Z31	X32	Y32	Z32	X33	Y33	Z33	X34	Y34	Z34	X35	Y35	Z35	X36	Y36	Z36	X37	Y37	Z37	X38	Y38	Z38	X39	Y39	Z39	X40	Y40	Z40	X41	Y41	Z41	X42	Y42	Z42	X43	Y43	Z43	X44	Y44	Z44	X45	Y45	Z45	X46	Y46	Z46	X47	Y47	Z47	X48	Y48	Z48	X49	Y49	Z49	X50	Y50	Z50	X51	Y51	Z51	

1	0.00000000	-1104.12540	797.70659	-461.26084	-1070.53313	723.58150	-476.32434	-1204.53584	406.51312	-479.85965	-1276.48364	373.04591	-516.95580	-1106.10450	352.30538	-442.66594	-1057.35291	377.63344	-497.58485	-1123.83293	804.14893	-744.68759	-1098.03973	709.75517	-743.98246	-1192.53955	407.36563	-725.23041	-1261.40612	372.52164	-688.09039	-1085.95532	352.38849	-764.39044	-1047.93592	373.94132	-706.03260	-1114.62682	618.81481	-453.71740	-1142.89477	750.05909	-449.06112	-1182.99339	646.01542	-444.63196	-1183.96853	729.06998	-756.92833	-1197.20856	607.11894	-765.26352	-1088.89478	1118.65203	-432.85206	-1077.28921	1007.20508	-437.26612	-1184.19414	988.20033	-431.21303	-1201.80278	1105.40597	-423.84336	-1131.81217	975.95462	-415.75360	-1103.46885	1074.58369	-799.84468	-1087.45003	940.21753	-769.93672	-1217.14601	1062.14637	-771.03636	-1193.67570	925.31921	-753.24064	-1079.61186	1268.91010	-476.08740	-1258.94464	1330.08420	-568.05053	-1059.59092	1258.04050	-725.49993	-1256.56271	1334.95281	-670.12717	-1183.25869	1740.16219	-619.71922	-1090.81653	1684.45695	-438.30957	-1095.63340	1700.11377	-791.60822	-1049.90038	1686.70890	-590.91914	-1042.12649	1690.80030	-629.20745	-1085.21243	1542.36023	-383.32617	-1153.45763	1338.29140	-432.11654	-1126.91877	1346.96780	-366.01539	-1050.45161	1227.98881	-370.08332	-1009.64333	1099.01065	-377.95137	-1030.97884	1090.63052	-351.06171	-1074.11283	1577.18291	-845.00424	-1140.21850	1348.19263	-786.17902	-1098.55609	1362.23153	-852.65865	-1032.65338	1269.24262	-828.34262	-994.38413	1116.15884	-817.40342	-1011.98068	1110.84026	-843.20155	-1165.29250	1199.42990	-505.40367	-1149.84062	1196.47188	-711.27430	-1152.89127	1194.59864	-515.94686	-1149.03952	1202.47153	-681.01185	
2	0.01000000	-1103.88313	797.55350	-461.28979	-1070.33547	723.42001	-476.20527	-1204.48924	406.62083	-479.84022	-1276.75226	372.91312	-517.00892	-1106.14316	352.32337	-442.68418	-1057.33559	377.72529	-497.55805	-1123.42436	804.08452	-744.70692	-1097.61857	709.58543	-743.79191	-1192.53884	407.38686	-725.26102	-1261.45962	372.46679	-688.03380	-1085.99915	352.47966	-764.42436	-1047.97276	373.99618	-706.04231	-1114.43392	618.58724	-453.69730	-1142.63670	749.95507	-448.97074	-1182.86931	645.92770	-444.52048	-1183.54845	728.98672	-756.66991	-1197.05308	607.10718	-765.06061	-1089.01844	1118.96110	-432.72628	-1077.07287	1006.98206	-437.31764	-1184.10197	987.96531	-431.14287	-1201.70903	1105.26928	-423.78128	-1131.65219	975.65734	-415.62419	-1103.37405	1074.51705	-799.78666	-1087.15445	940.16357	-769.84960	-1216.96867	1062.07233	-771.10855	-1193.40047	925.23358	-753.26796	-1079.57032	1268.76237	-476.01310	-1258.80297	1330.04104	-567.98014	-1059.58528	1257.94330	-725.42664	-1256.89363	1335.02188	-670.03299	-1182.92783	1740.04872	-619.54810	-1090.57529	1684.23005	-438.25983	-1095.37308	1699.87619	-791.50902	-1049.61549	1686.37940	-590.82006	-1041.81891	1690.31130	-629.19558	-1085.13658	1542.16639	-383.18852	-1153.54967	1338.01908	-431.96498	-1126.83392	1346.74277	-365.94132	-1050.44032	1227.79075	-369.82113	-1009.75236	1098.77393	-377.94826	-1031.09281	1090.38669	-350.89834	-1073.91021	1577.02024	-844.87938	-1140.02483	1347.86060	-785.85678	-1098.47850	1362.09941	-852.60137	-1032.58225	1268.99609	-828.38338	-994.44341	1115.99182	-817.45689	-1012.04199	1110.69464	-843.25357	-1165.32841	1199.35236	-505.34713	-1149.95662	1196.43420	-711.22431	-1152.54792	1194.44191	-515.56545	-1149.45962	1202.49838	-680.63440	
3	0.02000000	-1103.60519	797.32725	-461.27040	-1070.14126	723.21914	-476.14321	-1204.50218	406.56173	-479.82636	-1276.82763	372.85947	-517.03394	-1106.15725	352.31957	-442.68668	-1057.37501	377.73450	-497.61861	-1122.96929	804.01905	-744.83928	-1097.21509	709.46734	-743.74199	-1192.56510	407.35954	-725.20231	-1261.49148	372.42481	-687.97681	-1086.04929	352.47964	-764.33967	-1048.01143	374.03971	-706.03310	-1114.34525	618.32514	-453.78460	-1142.35189	749.75127	-448.85697	-1182.72338	645.89764	-444.35673	-1183.15030	728.98362	-756.53264	-1196.85308	607.11317	-765.02426	-1089.03080	1118.92965	-432.67014	-1076.85678	1006.84155	-437.36718	-1183.95373	987.76158	-431.02024	-1201.57895	1105.08825	-423.67342	-1131.49480	975.41648	-415.57476	-1103.21060	1074.41204	-799.82641	-1086.85062	940.10645	-769.77296	-1216.75302	1061.90999	-771.05244	-1193.06358	925.10489	-753.26201	-1079.49503	1268.60490	-475.90524	-1258.73451	1329.89921	-567.75885	-1059.55059	1257.79436	-725.35595	-1256.82635	1334.88740	-669.87946	-1182.57278	1739.93068	-619.35163	-1090.29669	1684.02105	-438.12715	-1095.06035	1699.70721	-791.39888	-1049.31946	1686.07660	-590.71270	-1041.50356	1690.00902	-629.10986	-1084.95753	1541.97499	-382.94377	-1153.39455	1337.79886	-431.89022	-1126.76574	1346.49844	-365.82881	-1050.43122	1227.49113	-369.70756	-1009.81144	1098.51198	-377.71276	-1031.19010	1090.13808	-350.70019	-1073.72015	1576.79729	-844.63724	-1139.90826	1347.68663	-785.74587	-1098.37518	1361.93573	-852.49251	-1032.53290	1268.75666	-828.34149	-994.49520	1115.83082	-817.39498	-1012.11380	1110.54714	-843.35884	-1165.24350	1199.19538	-505.21908	-1149.93638	1196.29832	-711.10138	-1152.49617	1194.28076	-515.46578	-1149.41141	1202.34491	-680.55769	
4	0.03000000	-1103.25160	797.10262	-461.12852	-1069.86290	722.89616	-476.15501	-1204.60631	406.38854	-479.87218	-1276.75504	372.86373	-516.98962	-1106.15528	352.32102	-442.67310	-1057.45661	377.69985	-497.80395	-1122.40149	803.95467	-745.01439	-1096.75733	709.32790	-743.72480	-1192.61980	407.26427	-725.01541	-1261.50045	372.40598	-687.97508	-1086.08454	352.43797	-764.23512	-1048.04532	374.05449	-706.01390	-1114.28678	618.03662	-453.85102	-1141.98827	749.47898	-448.71859	-1182.60300	645.86715	-444.24710	-1182.73810	729.01241	-756.48427	-1196.56881	607.17220	-765.12650	-1088.89649	1118.54297	-432.68533	-1076.77310	1006.82207	-437.15319	-1183.74241	987.55913	-430.92459	-1201.46228	1104.90808	-423.55756	-1131.33959	975.19876	-415.59893	-1102.97181	1074.28880	-799.90484	-1086.50635	940.06748	-769.77790	-1216.48413	1061.64135	-770.94903	-1192.67195	924.87097	-753.27852	-1079.38316	1268.45146	-475.73554	-1258.67104	1329.70472	-567.58028	-1059.45929	1257.59647	-725.25273	-1256.69268	1334.67111	-669.72605	-1182.11820	1739.80946	-619.34975	-1089.97430	1683.77533	-437.85549	-1094.63362	1699.55447	-791.30230	-1048.99562	1685.78863	-590.56207	-1041.18446	1689.77389	-628.98741	-1084.68180	1541.79322	-382.61988	-1153.13478	1337.57675	-431.78008	-1126.70409	1346.21810	-365.63151	-1050.41185	1227.11597	-369.64662	-1009.82647	1098.29269	-377.34581	-1031.25533	1089.92351	-350.45013	-1073.49773	1576.57804	-844.45365	-1139.81285	1347.60924	-785.75468	-1098.25240	1361.74482	-852.36192	-1032.45891	1268.47637	-828.18066	-994.53138	1115.62935	-817.33618	-1012.17205	1110.38082	-843.50779	-1165.12008	1199.01991	-505.05331	-1149.83413	1196.09474	-710.93680	-1152.44140	1194.08434	-515.35034	-1149.24295	1202.11323	-680.48532	
5	0.04000000	-1102.87816	796.96109	-460.87532	-1069.48393	722.70592	-476.05894	-1204.72976	406.26529	-479.95875	-1276.74408	372.83238	-516.94413	-1106.16428	352.33102	-442.65935	-1057.50761	377.76862	-497.83190	-1121.73387	803.85546	-745.07029	-1096.19666	709.08079	-743.61900	-1192.65334	407.20621	-724.93005	-1261.50864	372.39371	-688.03689	-1086.09592	352.43333	-764.23924	-1048.06908	374.04657	-706.00627	-1114.12293	617.79447	-453.74364	-1141.56481	749.22500	-448.60994	-1182.46210	645.65100	-444.28346	-1182.23009	728.99845	-756.42802	-1196.17174	607.32571	-765.16477	-1088.67455	1118.15958	-432.71864	-1076.78310	1006.86561	-436.72136	-1183.50471	987.30228	-430.90714	-1201.38723	1104.67493	-423.46046	-1131.13717	974.97946	-415.57394	-1102.69779	1074.15645	-799.87075	-1086.06192	940.04602	-769.88657	-1216.18121	1061.35435	-770.99055	-1192.20953	924.58677	-753.38580	-1079.24082	1268.27546	-475.53227	-1258.55322	1329.54254	-567.53745	-1059.35776	1257.38652	-725.16341	-1256.85287	1334.57210	-669.64978	-1181.61325	1739.65951	-619.38153	-1089.62704	1683.48188	-437.52219	-1094.13705	1699.33959	-791.24443	-1048.64952	1685.46194	-590.39401	-1040.86848	1689.43934	-628.83370	-1084.40072	1541.56656	-382.37755	-1153.02647	1337.29624	-431.57910	-1126.62407	1345.92610	-365.41731	-1050.37084	1226.76227	-369.49073	-1009.84679	1098.08259	-377.09376	-1031.29730	1089.68345	-350.18586	-1073.23719	1576.39166	-844.41869	-1139.66890	1347.49974	-785.72675	-1098.11620	1361.55068	-852.30970	-1032.31290	1268.15540	-828.04071	-994.54038	1115.37164	-817.36413	-1012.18674	1110.16714	-843.67232	-1165.06424	1198.87631	-504.93316	-1149.80060	1195.91461	-710.81778	-1152.13164	1193.81069	-514.98877	-1149.38015	1201.94781	-680.19774	
